<?xml version="1.0" standalone="no"?>
<!DOCTYPE svg PUBLIC "-//W3C//DTD SVG 20010904//EN"
 "http://www.w3.org/TR/2001/REC-SVG-20010904/DTD/svg10.dtd">
<svg version="1.0" xmlns="http://www.w3.org/2000/svg"
 width="1000.000000pt" height="1000.000000pt" viewBox="0 0 1000.000000 1000.000000"
 preserveAspectRatio="xMidYMid meet">

<g transform="translate(0.000000,1000.000000) scale(0.100000,-0.100000)"
fill="#000000" stroke="none">
<path d="M4358 8682 l-655 -652 -896 0 -897 0 0 -204 c0 -167 3 -205 14 -208
8 -2 259 -145 559 -318 l546 -315 -695 -3 -694 -2 2 -191 3 -192 709 -411 710
-411 -747 -3 -747 -2 0 -188 0 -187 1025 -590 c563 -324 1025 -596 1025 -602
0 -7 -252 -952 -560 -2099 -308 -1147 -560 -2090 -560 -2095 0 -5 146 -9 353
-9 l352 0 891 450 c491 248 897 450 902 450 6 0 412 -203 903 -450 l893 -450
356 2 357 3 -564 2095 c-310 1152 -561 2100 -559 2106 4 9 1969 1149 2032
1178 l24 11 0 187 0 188 -758 2 -759 3 694 400 c382 220 707 406 724 414 l29
15 0 188 0 188 -687 2 -688 3 553 318 c304 174 557 317 562 317 6 0 10 82 10
205 l0 205 -902 0 -903 0 -652 652 -651 651 -654 -651z m1007 -292 l360 -360
-720 0 -720 0 360 360 c198 198 360 360 360 360 0 0 162 -162 360 -360z
m-1705 -1030 c0 -143 -3 -260 -6 -260 -7 0 -875 500 -888 512 -6 4 193 8 442
8 l452 0 0 -260z m1889 256 c-10 -10 -551 -256 -562 -256 -7 0 -125 52 -263
116 -137 63 -262 122 -279 129 -26 11 55 13 539 14 313 1 567 -1 565 -3z
m1720 0 c-5 -4 -863 -497 -896 -515 l-23 -12 0 266 0 265 462 0 c254 0 459 -2
457 -4z m-1329 -341 l0 -295 -71 0 c-70 0 -75 2 -355 131 -157 73 -283 133
-282 135 6 5 693 323 701 324 4 0 7 -133 7 -295z m-1527 124 c180 -84 324
-155 320 -160 -4 -4 -131 -64 -281 -133 -244 -113 -278 -126 -327 -126 l-55 0
0 285 c0 157 3 285 8 285 4 0 155 -68 335 -151z m740 -341 l157 -73 -160 -3
c-88 -1 -233 -1 -322 0 l-163 3 155 72 c85 39 160 72 165 72 6 1 81 -32 168
-71z m-1493 -803 c0 -190 -2 -345 -5 -345 -5 0 -1101 634 -1160 671 -30 18
-21 19 568 19 l597 0 0 -345z m1849 342 c-13 -11 -511 -237 -522 -237 -12 0
-505 225 -516 235 -2 3 231 5 519 5 288 0 521 -2 519 -3z m2006 -9 c-11 -6
-267 -154 -570 -328 -302 -174 -560 -322 -572 -329 l-23 -12 0 341 0 340 593
0 c449 -1 587 -3 572 -12z m-1575 -343 c0 -179 -3 -325 -6 -325 -10 0 -705
323 -702 326 6 5 693 323 701 324 4 0 7 -146 7 -325z m-1527 154 c180 -84 324
-155 320 -160 -7 -6 -453 -215 -610 -285 l-53 -24 0 310 c0 171 3 310 8 310 4
0 155 -68 335 -151z m967 -446 l384 -178 -386 -3 c-213 -1 -562 -1 -775 0
l-389 3 380 177 c210 97 386 177 391 178 6 0 183 -80 395 -177z m-1720 -923
c0 -198 -2 -360 -5 -360 -5 0 -1236 708 -1244 716 -2 2 278 4 622 4 l627 0 0
-360z m1653 215 c-172 -80 -319 -145 -326 -145 -12 0 -616 276 -626 286 -2 2
281 4 630 4 l634 0 -312 -145z m2262 132 c-11 -8 -288 -168 -615 -357 -327
-188 -598 -344 -602 -347 -5 -2 -8 158 -8 356 l0 361 622 0 c525 0 619 -2 603
-13z m-1635 -392 c0 -179 -3 -325 -6 -325 -10 0 -705 323 -702 326 6 5 693
323 701 324 4 0 7 -146 7 -325z m-1527 154 c180 -84 324 -155 320 -160 -7 -6
-453 -215 -610 -285 l-53 -24 0 310 c0 171 3 310 8 310 4 0 155 -68 335 -151z
m901 -416 l320 -148 -321 -3 c-177 -1 -468 -1 -646 0 l-325 3 317 147 c174 81
321 147 326 148 6 0 154 -66 329 -147z m516 -576 c-8 -8 -193 -148 -410 -312
-217 -164 -400 -302 -407 -307 -9 -7 -138 85 -425 303 -227 171 -417 316 -422
320 -6 5 368 9 834 9 709 0 842 -2 830 -13z m394 -955 c109 -404 196 -737 194
-741 -4 -9 -1175 879 -1179 894 -5 15 775 604 782 591 4 -6 95 -341 203 -744z
m-1842 452 c253 -192 386 -300 380 -306 -30 -30 -1177 -895 -1180 -889 -2 6
377 1434 393 1479 2 6 7 12 10 12 4 0 182 -133 397 -296z m1231 -935 l598
-454 -605 -3 c-333 -1 -879 -1 -1213 0 l-607 3 599 457 c330 251 607 455 615
454 8 -2 284 -207 613 -457z m-51 -1149 c-305 -154 -559 -280 -565 -279 -7 0
-262 126 -567 279 l-555 279 1120 0 1120 1 -553 -280z m-942 -470 c0 -5 -1623
-829 -1627 -826 -1 1 97 368 368 1379 l21 77 619 -312 c340 -172 619 -315 619
-318z m2004 613 c11 -35 386 -1433 386 -1438 0 -3 -369 180 -820 407 -451 227
-819 415 -819 418 0 5 1229 628 1241 629 4 1 9 -7 12 -16z"/>
</g>
</svg>
