<?xml version="1.0" standalone="no"?>
<!DOCTYPE svg PUBLIC "-//W3C//DTD SVG 20010904//EN"
 "http://www.w3.org/TR/2001/REC-SVG-20010904/DTD/svg10.dtd">
<svg version="1.0" xmlns="http://www.w3.org/2000/svg"
 width="1000.000000pt" height="1000.000000pt" viewBox="0 0 1000.000000 1000.000000"
 preserveAspectRatio="xMidYMid meet">

<g transform="translate(0.000000,1000.000000) scale(0.100000,-0.100000)"
fill="#000000" stroke="none">
<path d="M4835 9984 c-220 -39 -414 -140 -571 -298 -244 -243 -354 -583 -299
-921 21 -128 101 -352 124 -343 5 1 48 41 96 87 l87 83 -26 77 c-62 188 -61
351 3 538 94 274 348 485 641 532 380 61 766 -169 891 -532 65 -189 65 -355 0
-544 l-28 -81 92 -92 93 -93 35 74 c196 418 116 893 -207 1215 -245 245 -597
358 -931 298z"/>
<path d="M4860 9705 c-250 -50 -446 -199 -555 -420 -66 -132 -80 -195 -79
-350 1 -113 4 -141 27 -210 40 -120 38 -118 97 -59 l52 51 -19 59 c-27 88 -25
257 4 349 63 198 214 350 418 421 71 25 94 28 205 28 111 0 134 -3 205 -28
204 -71 355 -223 418 -421 29 -92 31 -261 4 -349 l-18 -59 47 -48 c27 -27 51
-49 55 -49 13 0 50 111 66 195 18 92 13 226 -12 320 -22 86 -96 230 -152 298
-183 220 -487 328 -763 272z"/>
</g>
</svg>
